<?xml version="1.0" encoding="utf-8"?>
<!-- Generator: Adobe Illustrator 24.0.1, SVG Export Plug-In . SVG Version: 6.00 Build 0)  -->
<svg version="1.1" id="Layer_1" xmlns="http://www.w3.org/2000/svg" xmlns:xlink="http://www.w3.org/1999/xlink" x="0px" y="0px"
	 viewBox="0 0 156.75 199.88" style="enable-background:new 0 0 156.75 199.88;" xml:space="preserve">
<style type="text/css">
	.st0{fill:none;stroke:#161415;stroke-miterlimit:10;}
	.st1{fill:#111111;}
	.st2{fill:#050404;}
	.st3{fill:none;stroke:#5A3112;stroke-miterlimit:10;}
	.st4{fill:#5A3112;}
	.st5{fill:#070707;}
</style>
<title>beer</title>
<path class="st0" d="M111.2,78.45"/>
<path class="st1" d="M19.85,76.04h10.59v52.92h7.93V76.04h71.45v100.55c0,0-45,13.22-90,0L19.85,76.04z"/>
<path class="st2" d="M129.27,146.36l-0.3-2.63c9.22-1.05,15.7-4.16,19.82-9.5c7.6-9.85,5.3-25.75,3.62-37.36l-0.25-1.71
	c-2.43-17-21.52-14.85-22.34-14.75l-0.32-2.62c0.22,0,22.48-2.58,25.28,17l0.25,1.7c1.75,12.08,4.14,28.61-4.14,39.36
	C146.37,141.68,139.1,145.24,129.27,146.36z"/>
<path class="st3" d="M129.12,145.05"/>
<path class="st3" d="M127.01,145.25"/>
<path class="st3" d="M125.86,138.68"/>
<path class="st4" d="M127.5,139.81l-0.3-2.63c0.67-0.08,1.32-0.16,1.94-0.27l0.44,2.61C128.92,139.68,128.2,139.73,127.5,139.81z"/>
<path class="st5" d="M129.59,139.52l-0.43-2.61c20.4-3.36,17.74-21.76,15.79-35.2l-0.19-1.3c-1.81-12.72-16.11-11.09-16.72-11
	l-0.33-2.63c0.17,0,17.49-2,19.67,13.26l0.19,1.3C149.55,115.04,152.55,135.75,129.59,139.52z"/>
<path class="st5" d="M56.46,199.88c-18.94,0-38.74-1.77-55.53-7.07l-0.92-0.29V36.77h129.65v107.15h0.17l-0.17,1.31v47.45
	l-1.06,0.22C104.81,197.37,80.67,199.7,56.46,199.88z M2.65,190.58c46.19,14.13,115,1.68,124.36-0.12v-151H2.65L2.65,190.58z"/>
<path class="st3" d="M129.12,145.05"/>
<path class="st1" d="M0,37.06h129.56c0,0-28.5-52.12-51.82-20.85c0,0-20.73-36.48-46.65,0C31.09,16.21,0,13.61,0,37.06z"/>
<path class="st4" d="M77.61,18.62"/>
</svg>
