<?xml version="1.0" encoding="utf-8"?>
<!-- Generator: Adobe Illustrator 24.0.1, SVG Export Plug-In . SVG Version: 6.00 Build 0)  -->
<svg version="1.1" id="Layer_1" xmlns="http://www.w3.org/2000/svg" xmlns:xlink="http://www.w3.org/1999/xlink" x="0px" y="0px"
	 viewBox="0 0 62.44 191.5" style="enable-background:new 0 0 62.44 191.5;" xml:space="preserve">
<style type="text/css">
	.st0{fill:none;stroke:#000000;stroke-miterlimit:10;}
	.st1{fill:none;}
	.st2{fill:#0D0E0E;stroke:#000000;stroke-miterlimit:10;}
	.st3{fill:#090909;}
	.st4{fill:#111111;stroke:#000000;stroke-miterlimit:10;}
</style>
<title>cider</title>
<path class="st0" d="M18.66,19.03c-0.08,0.19-7.86,19.62-3.45,45.09l0.09,0.51l-0.46,0.27C14.72,64.97,2.2,72.37,1.72,85.77
	c-0.49,13.6,0,94.39,0,97.86c0.26,0.82,2.22,6.37,7.75,6.37h43.5c5.48,0,7.49-5.59,7.75-6.37c0-3.5,0.48-84.26,0-97.86
	c-0.48-13.43-13-20.8-13.13-20.87l-0.45-0.27l0.09-0.51c4.41-25.47-3.38-44.9-3.46-45.09l0,0H18.68H18.66z M29.84,108.03
	c0.88-3.07,3.16-6.85,9-8.35l0.76-0.2v0.19c0.98,0.16,1.69,1.01,1.68,2c0.01,0.69-0.33,1.34-0.91,1.73v0.12l-0.74,0.16
	c-0.18,0-4.59,1.06-6.27,8.22c0.05,0.18,0.08,0.36,0.08,0.54c0,0.32-0.09,0.63-0.25,0.9c5.9-2.83,12.97-0.8,16.48,4.72h0.13
	l0.18,0.42c0.94,1.61,1.51,3.41,1.67,5.26c0.2,1.18,0.31,2.37,0.31,3.57c0.01,11.39-9.22,20.64-20.61,20.65
	c-11.39,0.01-20.64-9.22-20.65-20.61c0-1.43,0.15-2.86,0.44-4.26c0.23-2.55,1.23-4.98,2.86-6.95v-0.05l0.12-0.19l0.24-0.37h0.13
	c1.75-1.88,4.03-3.19,6.53-3.76c-2.29-0.61-4.36-1.84-6-3.55c-0.68,0.38-1.53,0.33-2.16-0.13l0,0c-0.3-0.26-0.51-0.61-0.58-1
	c-0.01-0.08-0.03-0.16-0.07-0.23c-0.11-0.24-0.11-0.51,0-0.75c0.24-0.69,1.43-1.35,2.41-1.78c3.29-2,6.37-2.6,9.14-1.75
	c2.64,0.99,4.81,2.95,6.04,5.49L29.84,108.03z"/>
<rect x="18.72" y="1.5" class="st1" width="25" height="12"/>
<path class="st0" d="M15.32,105.7h-0.09c-0.54,0.23-1.06,0.52-1.54,0.86c0,0.1,0.05,0.19,0.07,0.27v0.05l0.11,0.12
	c0.33-0.04,0.64-0.15,0.92-0.33l0.55-0.32l0.41,0.49c0,0,2.9,3.39,6.79,3.66c2.13,0.09,4.21-0.65,5.8-2.08
	c-1.1-2.04-2.91-3.6-5.08-4.39C20.91,103.36,18.24,103.9,15.32,105.7z"/>
<path class="st0" d="M31.8,116.04l-0.44-0.37c-4.76-4.01-11.85-3.49-15.96,1.18l-0.17,0.2l0,0c-1.46,1.76-2.35,3.92-2.55,6.2v0.09
	c-0.27,1.32-0.41,2.66-0.41,4c-0.24,10.56,8.13,19.32,18.69,19.56c10.56,0.24,19.32-8.13,19.56-18.69c0.01-0.29,0.01-0.58,0-0.87
	c0-1.12-0.1-2.24-0.3-3.34v-0.07c-0.14-1.66-0.66-3.26-1.5-4.7l0,0c-3.23-5.43-10.24-7.21-15.67-3.99c-0.25,0.15-0.5,0.31-0.73,0.48
	L31.8,116.04z"/>
<path class="st0" d="M30.93,111.92v0.58c0.05,0.25,0.28,0.42,0.53,0.4c0.29,0,0.53-0.18,0.53-0.4c0.01-0.05,0.01-0.09,0-0.14
	l-0.13-0.24l0.06-0.26c1.48-6.65,5.19-8.75,6.78-9.36v-0.14l0.81-0.11c0.23-0.06,0.39-0.28,0.36-0.52c0-0.29-0.18-0.54-0.4-0.54
	h-0.11l-0.83,0.32v-0.15c-4.73,1.24-7.95,5.61-7.73,10.49L30.93,111.92z"/>
<path class="st0" d="M29.35,112.58c-0.08-1.06-0.02-2.12,0.18-3.16c-1.1,0.97-2.37,1.72-3.76,2.2c1.24,0.18,2.45,0.53,3.59,1.05
	L29.35,112.58z"/>
<polygon class="st2" points="18.72,1.5 43.72,1.5 43.72,13.5 45.22,13.5 45.22,0 17.22,0 17.22,13.5 18.72,13.5 "/>
<path class="st2" d="M62.22,85.72C61.8,72.79,51.16,65.37,48.8,63.85c3.91-23.33-2.22-41.6-3.43-44.87H43.8l0,0
	c0.08,0.19,7.87,19.62,3.46,45.09l-0.09,0.51l0.45,0.27c0.13,0.07,12.65,7.44,13.13,20.87c0.48,13.6,0,94.36,0,97.86
	c-0.26,0.78-2.27,6.37-7.75,6.37H9.5c-5.53,0-7.49-5.55-7.75-6.37c0-3.47-0.49-84.26,0-97.86c0.48-13.4,13-20.8,13.12-20.87
	l0.46-0.27l-0.09-0.51c-4.41-25.47,3.37-44.9,3.45-45.09l0,0h-1.61c-1.21,3.27-7.33,21.54-3.43,44.87c-2.37,1.5-13,8.92-13.42,21.85
	c-0.5,13.86,0,97.19,0,98v0.1v0.1c0,0.08,2.23,7.55,9.22,7.55h43.5c7,0,9.2-7.47,9.22-7.55v-0.1v-0.1
	C62.22,182.91,62.71,99.58,62.22,85.72z"/>
<path class="st3" d="M45.36,19h3.86c0,0,4.5-2.94,0-5.5h-4v5.1L45.36,19z"/>
<path class="st3" d="M17.22,13.5h-4.5c0,0-4.5,2.93,0,5.5h4.35c0.06-0.17,0.11-0.31,0.15-0.4V13.5z"/>
<polygon class="st3" points="43.72,13.5 18.72,13.5 18.72,18.9 18.68,19 43.76,19 43.72,18.9 "/>
<path class="st3" d="M43.72,18.85v0.11h1.6l-0.14-0.4v-5.1h-1.5L43.72,18.85z"/>
<path class="st3" d="M18.72,18.85v-5.39h-1.5v5.1c0,0.09-0.09,0.23-0.15,0.4h1.61L18.72,18.85z"/>
<path class="st4" d="M31.47,114.4c-0.84,0.02-1.6-0.48-1.91-1.26H29.4v-0.44c-1.14-0.52-2.35-0.87-3.59-1.05
	c-0.87,0.29-1.79,0.44-2.71,0.44c-0.21,0-0.42,0-0.63,0c-0.46-0.03-0.92-0.1-1.37-0.2c-2.5,0.57-4.78,1.88-6.53,3.76h-0.13
	l-0.24,0.37l-0.12,0.19v0.05c-1.63,1.97-2.63,4.4-2.86,6.95c-2.34,11.15,4.8,22.09,15.95,24.43c11.15,2.34,22.09-4.8,24.43-15.95
	c0.29-1.4,0.44-2.83,0.44-4.26c0-1.2-0.11-2.39-0.31-3.57c-0.16-1.85-0.73-3.65-1.67-5.26l-0.18-0.42H49.8
	c-3.51-5.52-10.58-7.55-16.48-4.72C32.92,114.08,32.21,114.44,31.47,114.4z M48.65,119.22L48.65,119.22c0.84,1.44,1.36,3.04,1.5,4.7
	v0.07c0.2,1.1,0.3,2.22,0.3,3.34c0.24,10.56-8.13,19.32-18.69,19.56c-10.56,0.24-19.32-8.13-19.56-18.69
	c-0.01-0.29-0.01-0.58,0-0.87c0-1.34,0.14-2.68,0.41-4v-0.09c0.2-2.28,1.09-4.44,2.55-6.2l0,0l0.17-0.2
	c4.11-4.66,11.18-5.19,15.94-1.2l0.44,0.37l0.47-0.33c5.16-3.63,12.29-2.39,15.92,2.78c0.17,0.24,0.33,0.48,0.48,0.73L48.65,119.22z
	"/>
<path class="st4" d="M14.58,104.4c-1,0.43-2.17,1.09-2.41,1.78c-0.11,0.24-0.11,0.51,0,0.75c0.04,0.07,0.06,0.15,0.07,0.23
	c0.07,0.39,0.28,0.74,0.58,1l0,0c0.63,0.46,1.48,0.51,2.16,0.13c1.64,1.71,3.71,2.94,6,3.55c0.96-0.23,1.94-0.34,2.93-0.35
	c0.6,0,1.19,0.05,1.78,0.13c1.39-0.48,2.66-1.23,3.76-2.2c0.08-0.42,0.18-0.87,0.31-1.35c-1.27-2.53-3.46-4.47-6.12-5.42
	C20.95,101.85,17.87,102.38,14.58,104.4z M28.35,108.47c-1.59,1.43-3.67,2.17-5.8,2.08c-3.89-0.27-6.76-3.63-6.79-3.66l-0.41-0.49
	l-0.55,0.32c-0.28,0.18-0.59,0.29-0.92,0.33l-0.11-0.12v-0.08c0-0.08,0-0.17-0.07-0.27c0.48-0.34,1-0.63,1.54-0.86h0.09
	c2.92-1.8,5.59-2.34,8-1.62C25.48,104.9,27.26,106.45,28.35,108.47z"/>
<path class="st4" d="M23.06,112.06c0.92,0,1.84-0.15,2.71-0.44c-0.59-0.08-1.18-0.13-1.78-0.13c-0.99,0.01-1.97,0.12-2.93,0.35
	c0.45,0.1,0.91,0.17,1.37,0.2C22.64,112.06,22.85,112.06,23.06,112.06z"/>
<path class="st4" d="M30.2,108.85l-0.41,0.37c-0.08,0.08-0.17,0.15-0.26,0.21c-0.2,1.04-0.26,2.1-0.18,3.16v0.09
	c0.89,0.4,1.73,0.9,2.5,1.5c0.45-0.29,0.91-0.54,1.39-0.77c0.16-0.27,0.25-0.58,0.25-0.9c0-0.18-0.03-0.36-0.08-0.54
	c1.68-7.16,6.09-8.18,6.27-8.22l0.74-0.16v-0.12c0.58-0.39,0.92-1.04,0.91-1.73c0.01-0.99-0.7-1.84-1.68-2v-0.19l-0.76,0.2
	c-5.84,1.5-8.12,5.28-9,8.35c0.08,0.15,0.12,0.25,0.14,0.27L30.2,108.85z M38.45,101.4v0.15l0.83-0.32h0.11
	c0.22,0,0.4,0.25,0.4,0.54c0.03,0.24-0.13,0.46-0.36,0.52l-0.81,0.11v0.14c-1.59,0.61-5.3,2.71-6.78,9.36l-0.06,0.26l0.13,0.24
	c0.01,0.05,0.01,0.09,0,0.14c0,0.22-0.24,0.4-0.53,0.4c-0.25,0.02-0.48-0.15-0.53-0.4v-0.58h-0.12
	C30.47,107.05,33.7,102.64,38.45,101.4L38.45,101.4z"/>
<path class="st4" d="M29.36,112.67v0.44h0.16c0.31,0.78,1.07,1.28,1.91,1.26c0.73,0,1.41-0.38,1.78-1
	c-0.48,0.23-0.94,0.48-1.39,0.77C31.06,113.56,30.23,113.06,29.36,112.67z"/>
<path class="st4" d="M29.8,109.21l0.41-0.37l-0.22-0.5c0,0-0.06-0.12-0.14-0.27c-0.13,0.48-0.23,0.93-0.31,1.35
	C29.63,109.36,29.72,109.29,29.8,109.21z"/>
</svg>
