<svg id="Layer_1" data-name="Layer 1" xmlns="http://www.w3.org/2000/svg" viewBox="0 0 136.58 262.52"><defs><style>.cls-1,.cls-5,.cls-6{fill:none;stroke-miterlimit:10;}.cls-1{stroke:#080808;}.cls-2{fill:#070707;}.cls-3{fill:#5a3112;}.cls-4{fill:#090909;}.cls-5{stroke:#161415;}.cls-6{stroke:#5a3112;}.cls-7{fill:#111;}.cls-8{fill:#0b0a08;}.cls-9{fill:#0b0907;}.cls-10{fill:#140f0b;}.cls-11{fill:#110d0a;}.cls-12{fill:#0c0d0c;}</style></defs><title>cocktail</title><path class="cls-1" d="M289,626.16" transform="translate(-221.15 -333.95)"/><path class="cls-1" d="M292,624.16" transform="translate(-221.15 -333.95)"/><path class="cls-1" d="M292,632.2" transform="translate(-221.15 -333.95)"/><path class="cls-1" d="M290,631.16" transform="translate(-221.15 -333.95)"/><path class="cls-2" d="M341.93,388.3a201.56,201.56,0,0,1-42.77,5.91,226,226,0,0,1-66.37-7.49s-28,50.14,2.8,63,46.13,7.16,54.51,21.49" transform="translate(-221.15 -333.95)"/><path class="cls-3" d="M347.42,386.72s-1.92.65-5.49,1.58" transform="translate(-221.15 -333.95)"/><path class="cls-4" d="M239.91,391.55a206.87,206.87,0,0,0,38.94,3.79A225.58,225.58,0,0,0,345,385.88s29.36,49.3-1,63.1-45.91,8.53-53.89,23.1" transform="translate(-221.15 -333.95)"/><path class="cls-5" d="M238.51,391.55" transform="translate(-221.15 -333.95)"/><path class="cls-6" d="M345.32,386" transform="translate(-221.15 -333.95)"/><path class="cls-6" d="M347.42,386.72" transform="translate(-221.15 -333.95)"/><polygon class="cls-3" points="123.64 53.01 121.58 52.64 121.81 51.23 123.89 51.6 123.64 53.01"/><path class="cls-7" d="M233.71,388.11l-.44-1.36c.1,0,10.33-3.47,28.88-5.37,17.1-1.75,45-2.5,80.82,3.8l-.24,1.41c-35.63-6.27-63.38-5.52-80.38-3.79C243.93,384.68,233.81,388.08,233.71,388.11Z" transform="translate(-221.15 -333.95)"/><path class="cls-8" d="M276.13,585.15v-1.43a13.75,13.75,0,0,0,13.28-9.42V468.38h1.39V574.51l0,.1C290.75,574.71,287.7,585.15,276.13,585.15Z" transform="translate(-221.15 -333.95)"/><path class="cls-9" d="M303.38,585.15c-11.57,0-14.62-10.44-14.65-10.54l0-.2v-106h1.39V574.3a13.57,13.57,0,0,0,13.28,9.42Z" transform="translate(-221.15 -333.95)"/><path class="cls-10" d="M290.38,596.47c-23.7,0-48.88-5-48.88-14.15s25.18-14.14,48.88-14.14,48.89,5,48.89,14.14S314.08,596.47,290.38,596.47Zm0-25.53c-27.17,0-46.11,6-46.11,11.38s18.94,11.38,46.11,11.38,46.12-6,46.12-11.38S317.56,570.94,290.38,570.94Z" transform="translate(-221.15 -333.95)"/><path class="cls-11" d="M285.15,420.93a.6.6,0,0,1-.38-.43l-1.15-3.43a2.21,2.21,0,0,1,.42-1.91l68.2-80.86c.42-.5.91-.46,1.1.09l1.14,3.44a1.85,1.85,0,0,1,0,1,2.23,2.23,0,0,1-.44.93l-68.2,80.87a.78.78,0,0,1-.63.34Zm.32-4.67.48,1.43,66.68-79.06-.48-1.43Z" transform="translate(-221.15 -333.95)"/><circle class="cls-12" cx="113.33" cy="25.13" r="9.45"/></svg>