<svg id="Layer_1" data-name="Layer 1" xmlns="http://www.w3.org/2000/svg" viewBox="0 0 190.76 193.26"><defs><style>.cls-1{fill:#0c0d0c;}</style></defs><title>hotdrink</title><path class="cls-1" d="M395.46,451.66c32.2-1.19,36.57-20.47,29.84-28.69-6.1-7.46-17.08-4.58-19.27-3.91a106.32,106.32,0,0,0,1.12-15.37c0-1.8,0-3.59-.13-5.37l-163.22.45c-.06,1.45,0,3.45,0,4.92,0,31.14,13.44,58.7,34.07,75.58L240,478.93a2.1,2.1,0,0,0,0,3c18.87,13.39,62.73,14.53,79.12,14.47,2.09.18,4.21.28,6.34.28,1.93,0,3.84-.09,5.74-.24,15.95.15,60.58-.73,79.71-14.21a2.11,2.11,0,0,0,0-3l-38.07.22A89.78,89.78,0,0,0,395.46,451.66Zm16.9-27.49c5,.38,10.05,2.11,8.41,7.88-.9,3.12-3.31,5.72-6.26,7.83-6.2,4.43-14.79,6.71-16.77,7.19a101.16,101.16,0,0,0,7.38-22.71A40,40,0,0,1,412.36,424.17Z" transform="translate(-238.29 -304.51)"/><path class="cls-1" d="M325.48,497.76c-2.14,0-4.3-.09-6.43-.28-17.62.06-60.69-1.21-79.64-14.66a3.63,3.63,0,0,1-1-1.47,3,3,0,0,1,.83-3.16l.31-.31,35.37.31c-20.22-17.77-32.21-45.38-32.21-74.5l0-1.53c0-1.17,0-2.43,0-3.43l0-1L408,397.26l.05,1c.09,1.79.14,3.6.14,5.42a108.92,108.92,0,0,1-.91,13.95c4-.93,13.25-2.14,18.82,4.66,3.27,4,3.85,10,1.49,15.19-4,9-15.51,14.48-31.5,15.2a91.06,91.06,0,0,1-20.32,25.69l35.58-.21.31.32a3.09,3.09,0,0,1,0,4.51c-19.26,13.6-62.67,14.69-80.46,14.53C329.33,497.68,327.37,497.76,325.48,497.76Zm-6.34-2.39a69.68,69.68,0,0,0,12,.05c13.79.12,60-.53,79.18-14a.92.92,0,0,0,.11-1.1l-40.55.23,2.33-1.89a88.51,88.51,0,0,0,22.32-27.46l.29-.54.61,0c15.47-.58,26.5-5.67,30.26-14,2-4.51,1.56-9.61-1.2-13-5.68-6.94-16.11-4.19-18.15-3.57l-1.59.49.24-1.65a106.54,106.54,0,0,0,1.11-15.22c0-1.45,0-2.88-.09-4.31l-161.18.44c0,.74,0,1.55,0,2.31v1.56c0,29.55,12.59,57.5,33.67,74.76l2.32,1.9L240.52,480a.75.75,0,0,0-.06.69,1.67,1.67,0,0,0,.31.53C259.08,494.19,301.67,495.48,319.14,495.37Zm76.72-46.75.92-2a99.58,99.58,0,0,0,7.31-22.48l.15-.75.76-.09a41.2,41.2,0,0,1,7.44-.19h0c4.35.33,7.28,1.54,8.72,3.6a6.43,6.43,0,0,1,.62,5.62c-.87,3-3.11,5.86-6.65,8.4-6.26,4.47-14.7,6.76-17.14,7.36ZM406,425.33a102.23,102.23,0,0,1-6.38,20.14c3.36-1,9.58-3.09,14.28-6.45,3.15-2.25,5.12-4.69,5.85-7.26a4.32,4.32,0,0,0-.33-3.83c-1-1.49-3.5-2.43-7.14-2.7h0A36.86,36.86,0,0,0,406,425.33Z" transform="translate(-238.29 -304.51)"/><path class="cls-1" d="M328.5,306.51s15.13,14.37-3.78,21.17-27.22,33.28-3,47.65c0,0,1.51,0,0-3,0,0-15.13-23.44,4.53-34.78s21.18-24.2,3.79-31.77C330,305.75,327.75,305,328.5,306.51Z" transform="translate(-238.29 -304.51)"/><path class="cls-1" d="M321.7,376.38h-.29l-.25-.14c-10.73-6.37-16.32-16-15.33-26.32s8.42-19.59,18.53-23.23c5.09-1.83,8-4.35,8.67-7.5,1.2-5.69-5.19-11.85-5.26-11.92l-.21-.29a1.65,1.65,0,0,1,.08-1.94c.7-.8,2-.52,2.71-.29,8.08,3.51,12.47,8.23,12.78,13.67.37,6.6-5.44,13.7-16.37,20-4.85,2.8-7.89,6.61-9,11.34-2.5,10.35,4.79,21.85,4.86,22,.91,1.81,1.07,3,.55,3.84A1.74,1.74,0,0,1,321.7,376.38Zm8.84-69.23c2,2.37,5.62,7.39,4.55,12.47-.82,3.91-4.19,7-10,9.06-9.36,3.37-16.25,12-17.15,21.44-.89,9.3,3.81,17.66,13.25,23.65a8.24,8.24,0,0,0-.43-1c-.26-.4-7.8-12.26-5.08-23.49,1.29-5.32,4.66-9.59,10-12.69,10.2-5.88,15.64-12.3,15.31-18.06C340.77,314.15,337.16,310.22,330.54,307.15Z" transform="translate(-238.29 -304.51)"/><path class="cls-1" d="M342.87,326.17s6.05,13.61-5.29,16.64-19.66,27.22-6.05,40.84c0,0,.75.75.75-.76S327,361,339.09,354.15s15.13-21.93,4.54-28.73C343.63,325.42,342.12,324.66,342.87,326.17Z" transform="translate(-238.29 -304.51)"/><path class="cls-1" d="M331.9,384.89a1.65,1.65,0,0,1-1.12-.5c-6.64-6.64-9-16.65-6.27-26.76,2.18-8.13,7.2-14.35,12.8-15.84a7.68,7.68,0,0,0,5.29-4c2.14-4.45-.52-10.8-.69-11.18-.43-.89-.41-1.58.08-2.06a1.84,1.84,0,0,1,2.11-.09,14.58,14.58,0,0,1,7,13.11c-.2,6.9-4.63,13.6-11.54,17.49-6.62,3.73-8.8,12.58-6.48,26.31a13.83,13.83,0,0,1,.21,1.51c0,.38,0,1.52-.93,1.9A1.32,1.32,0,0,1,331.9,384.89Zm12.52-57.6c.82,2.48,2,7.42.09,11.42a9.7,9.7,0,0,1-6.66,5.12c-4.8,1.28-9.34,7-11.3,14.34-2.34,8.71-.67,17.29,4.47,23.36-2.43-14.59.11-24.11,7.55-28.3,6.28-3.53,10.29-9.55,10.47-15.72A12.39,12.39,0,0,0,344.42,327.29Z" transform="translate(-238.29 -304.51)"/></svg>