<?xml version="1.0" encoding="utf-8"?>
<!-- Generator: Adobe Illustrator 24.0.1, SVG Export Plug-In . SVG Version: 6.00 Build 0)  -->
<svg version="1.1" id="Layer_1" xmlns="http://www.w3.org/2000/svg" xmlns:xlink="http://www.w3.org/1999/xlink" x="0px" y="0px"
	 viewBox="0 0 102.92 292.1" style="enable-background:new 0 0 102.92 292.1;" xml:space="preserve">
<style type="text/css">
	.st0{fill:none;stroke:#0F0F0E;stroke-width:7;stroke-miterlimit:10;}
	.st1{fill:#0F0F0E;}
	.st2{fill:#FFFFFF;}
</style>
<title>non-akohol</title>
<path class="st0" d="M72.36,79.68v-2.6c0,0,0.76-62.43,0.82-67.63s-7.69-9.2-7.69-9.2l-5.62-0.06l0,0h-1.73L51.2,0.11l-6.51-0.08
	v0.16h-5.61c0,0-7.8,3.91-7.8,9.11v70.23c0,0-32.54,19.48-31.24,57.2v148.28c0,0,1.3,7.81,7.8,6.51h48.52l36.81,0.44
	c6.48,1.38,7.88-6.41,7.88-6.41l1.79-148.25C104.61,99.58,72.36,79.68,72.36,79.68z"/>
<rect x="0.04" y="141.66" class="st1" width="101.99" height="87.83"/>
<path class="st2" d="M42.09,188.12c0,10.43-3.87,16.19-10.66,16.19c-6,0-10.06-5.62-10.15-15.77s4.43-15.95,10.66-15.95
	C38.41,172.59,42.09,178.35,42.09,188.12z M25.43,188.59c0,8,2.45,12.51,6.23,12.51c4.25,0,6.28-5,6.28-12.79
	c0-7.56-1.94-12.51-6.23-12.51C28.07,175.8,25.43,180.23,25.43,188.59z"/>
<path class="st2" d="M59.23,179.56c0,6.46-3.39,9.67-7.36,9.67c-3.82,0-7.13-3.07-7.17-9.25s3.35-9.58,7.41-9.58
	C56.4,170.4,59.23,173.7,59.23,179.56z M48,179.84c-0.1,3.92,1.37,6.89,4,6.89s4-2.93,4-7c0-3.73-1.09-6.84-4-6.84
	C49.37,172.9,48,175.97,48,179.84z M51.59,202.12l18-31.72h2.64l-18,31.72H51.59z M79.2,192.3c0,6.47-3.4,9.68-7.32,9.68
	s-7.12-3.07-7.17-9.21s3.35-9.63,7.41-9.63C76.41,183.09,79.2,186.4,79.2,192.3z M67.97,192.58c-0.05,3.92,1.46,6.9,4,6.9
	c2.73,0,4-2.93,4-7c0-3.73-1.08-6.84-4-6.84c-2.59-0.04-4,3.02-4,6.89L67.97,192.58z"/>
</svg>
