<?xml version="1.0" encoding="utf-8"?>
<!-- Generator: Adobe Illustrator 24.0.1, SVG Export Plug-In . SVG Version: 6.00 Build 0)  -->
<svg version="1.1" id="Layer_1" xmlns="http://www.w3.org/2000/svg" xmlns:xlink="http://www.w3.org/1999/xlink" x="0px" y="0px"
	 viewBox="0 0 595.28 841.89" style="enable-background:new 0 0 595.28 841.89;" xml:space="preserve">
<style type="text/css">
	.st0{fill:none;stroke:#3C53A4;stroke-miterlimit:10;}
	.st1{fill:#3C53A4;stroke:#3C53A4;stroke-miterlimit:10;}
</style>
<path class="st0" d="M212.02,202.37"/>
<path class="st1" d="M400.84,207.02"/>
<g>
	<path d="M292.23,662.08c-63.7,0-110.66-27.28-111.36-27.7l-1.97-1.17l0.08-2.29c8.38-253.81-75.47-488.59-76.32-490.93l-1.88-5.2
		h365.67l-3.93,6c-58.24,89-63.11,486.29-63.15,490.3l-0.02,2.24l-1.95,1.1C360.6,655.16,324.29,662.08,292.23,662.08z M186.8,628.8
		c14.6,7.82,107.81,53.35,204.82-0.05c0.45-34.97,6.33-388.39,60.78-486.2H111.75C124,178.53,193.99,395.35,186.8,628.8z"/>
</g>
<g>
	<path d="M182.19,644.76c0,0,94.56,71.23,214.7,0v68.97c0,0-98.73,52.01-209.95-2.26L182.19,644.76z"/>
	<path d="M293.09,739.89c-32.23,0-69.38-6.17-107.83-24.93l-2-0.98l-5.52-77.39l6.75,5.06c0.93,0.7,94.06,68.78,210.44-0.23
		l5.81-3.44v78.1l-2.07,1.09C398.02,717.52,354.47,739.89,293.09,739.89z M190.62,708.94c98.69,47.08,187.86,9.2,202.41,2.36v-59.85
		c-60.77,33.97-114.56,31.83-149.41,23.81c-27.42-6.32-47.3-16.91-57.04-22.92L190.62,708.94z"/>
</g>
<g>
	<g>
		<path d="M204.86,608.21h0.87c-0.32-0.49-0.61-0.99-0.92-1.49C204.85,607.68,204.86,608.21,204.86,608.21z"/>
	</g>
	<g>
		<path d="M382.32,608.21c-0.02-0.09-0.04-0.2-0.07-0.29c-0.06,0.1-0.13,0.19-0.19,0.29H382.32z"/>
	</g>
</g>
<g>
	<g>
		<path d="M291.74,477.11c39.68,0,73.88,19.99,89.62,48.81c4.13-76.99,14.27-185.18,14.27-185.18H169.94
			c16.71,27.41,25.11,124.77,29,191.66C212.85,500.13,249.15,477.11,291.74,477.11z"/>
	</g>
	<g>
		<path d="M201.9,598.5h0.88c-0.32-0.57-0.62-1.14-0.93-1.72C201.89,597.89,201.9,598.5,201.9,598.5z"/>
	</g>
	<g>
		<path d="M380.96,598.5c-0.02-0.1-0.04-0.23-0.07-0.33c-0.06,0.11-0.13,0.22-0.19,0.33H380.96z"/>
	</g>
	<g>
		<path d="M291.38,646.1c39.37,0,73.39-19.42,89.52-47.6H201.85C217.98,626.67,252.01,646.1,291.38,646.1z"/>
	</g>
	<g>
		<path d="M381.36,525.92c-15.74-28.83-49.94-48.81-89.62-48.81c-42.59,0-78.89,23.02-92.8,55.29c1.89,32.5,2.72,57.79,2.91,64.38
			c0.31,0.57,0.6,1.15,0.93,1.72H380.7c0.06-0.11,0.13-0.22,0.19-0.33C378.86,588.84,379.5,560.55,381.36,525.92z"/>
	</g>
</g>
<g>
	<g>
		<path d="M619.78,496.21h0.81c-0.3-0.42-0.57-0.86-0.85-1.28C619.77,495.75,619.78,496.21,619.78,496.21z"/>
	</g>
	<g>
		<path d="M784.76,496.21c-0.02-0.07-0.04-0.17-0.06-0.25c-0.06,0.08-0.12,0.16-0.18,0.25H784.76z"/>
	</g>
</g>
</svg>
