<svg xmlns="http://www.w3.org/2000/svg" viewBox="0 0 253.15 253.15"><defs><style>.cls-1,.cls-2{stroke:#000;stroke-miterlimit:10;}.cls-1{stroke-width:11.33px;}.cls-2{stroke-width:11.2px;}</style></defs><g id="web"><path d="M126.57,218a75.76,75.76,0,1,1,29.58-6A75.38,75.38,0,0,1,126.57,218Zm0-140.61A64.64,64.64,0,1,0,191.21,142,64.71,64.71,0,0,0,126.57,77.39Z"/><rect x="120.91" y="77.39" width="11.33" height="129.28"/><path d="M130.16,215.33,123,206.56c21.37-17.46,32.58-37.14,33.32-58.49,1.36-39.29-32.84-71.89-33.19-72.22l7.76-8.25a135,135,0,0,1,18.91,23.46,121.5,121.5,0,0,1,12.68,25.52,87.25,87.25,0,0,1,5.16,31.88C166.77,173.22,154.16,195.72,130.16,215.33Z"/><path d="M123.69,215.33l7.17-8.77c-21.37-17.46-32.58-37.14-33.32-58.49-1.36-39.29,32.84-71.89,33.19-72.22L123,67.6a135.25,135.25,0,0,0-18.92,23.46,121.93,121.93,0,0,0-12.67,25.52,87.25,87.25,0,0,0-5.16,31.88C87.08,173.22,99.69,195.72,123.69,215.33Z"/><line class="cls-1" x1="61.93" y1="142.03" x2="191.21" y2="142.03"/><line class="cls-1" x1="62.38" y1="174.59" x2="191.66" y2="174.59"/><line class="cls-2" x1="65.22" y1="111.15" x2="191.66" y2="111.15"/></g></svg>