<svg id="Layer_1" data-name="Layer 1" xmlns="http://www.w3.org/2000/svg" viewBox="0 0 202.73 176.1"><defs><style>.cls-1,.cls-2{stroke:#000;stroke-miterlimit:10;}.cls-1{stroke-width:11.33px;}.cls-2{stroke-width:11.2px;}</style></defs><title>Artboard 7</title><path d="M101.36,164a76,76,0,0,1-29.57-146,76,76,0,0,1,59.14,140A75.48,75.48,0,0,1,101.36,164Zm0-140.61A64.64,64.64,0,1,0,166,88.05,64.72,64.72,0,0,0,101.36,23.41Z"/><rect x="95.7" y="23.41" width="11.33" height="129.28"/><path d="M105,161.36l-7.17-8.78c21.37-17.45,32.57-37.13,33.32-58.49,1.36-39.28-32.84-71.89-33.19-72.22l7.76-8.25a135.9,135.9,0,0,1,18.91,23.46,121.57,121.57,0,0,1,12.68,25.53,87.2,87.2,0,0,1,5.16,31.87C141.56,119.24,129,141.74,105,161.36Z"/><path d="M98.48,161.36l7.17-8.78c-21.37-17.45-32.58-37.13-33.32-58.49C71,54.81,105.17,22.2,105.52,21.87l-7.76-8.25A136.21,136.21,0,0,0,78.84,37.08,122,122,0,0,0,66.17,62.61,87.2,87.2,0,0,0,61,94.48C61.87,119.24,74.48,141.74,98.48,161.36Z"/><line class="cls-1" x1="36.72" y1="88.05" x2="166" y2="88.05"/><line class="cls-1" x1="37.17" y1="120.61" x2="166.45" y2="120.61"/><line class="cls-2" x1="40.01" y1="57.18" x2="166.45" y2="57.18"/></svg>