<?xml version="1.0" encoding="utf-8"?>
<!-- Generator: Adobe Illustrator 24.0.1, SVG Export Plug-In . SVG Version: 6.00 Build 0)  -->
<svg version="1.1" id="Layer_1" xmlns="http://www.w3.org/2000/svg" xmlns:xlink="http://www.w3.org/1999/xlink" x="0px" y="0px"
	 viewBox="0 0 138.45 216" style="enable-background:new 0 0 138.45 216;" xml:space="preserve">
<style type="text/css">
	.st0{fill:#0F0C0A;stroke:#000000;stroke-miterlimit:10;}
</style>
<title>wine</title>
<path class="st0" d="M138.44,51.63c0.07-7.55-0.52-15.09-1.77-22.53c-1.56-9.65-4.07-19.12-7.48-28.28l-0.13-0.31L71.74,0.04l0,0
	h-2.49h-2L9.41,0.55L9.28,0.86C9.15,1.18-3.33,32.75,0.9,63.64c-0.27,0.63-0.32,1.34-0.14,2c0.19,0.67,0.4,1.59,0.64,2.65
	c1.56,7.97,4.51,15.6,8.72,22.54c7.77,12.81,20,22.07,36.51,27.66c0.17,0,16.53,3.89,20,14.45c0,0.21,0.1,0.42,0.14,0.63l0.34,19.08
	c0,2.65,0.09,5.47,0.16,8.4l0.88,44c-13,0.08-31.39,1.57-31.39,5.49s19.44,5.5,32.5,5.5s32.5-1.46,32.5-5.5s-18.35-5.41-31.38-5.49
	l0.88-44c0.07-2.93,0.13-5.76,0.17-8.4l0.33-17.15v-2c0,0,0-0.12,0-0.3c1.09-3.2,3.13-5.99,5.85-8c2.7-2.02,5.65-3.68,8.78-4.93
	c1.79-0.73,3.63-1.33,5.5-1.8c1-0.35,2-0.71,3-1.08H95c0,0,0.89-0.31,2.33-0.94c16.11-6.67,27.66-17.35,34.34-31.86
	c1.23-2.71,2.29-5.49,3.16-8.34C137.44,68.31,138.66,59.98,138.44,51.63z M10.07,1.5l57.16-0.46h0.39h3.12l0,0l57.66,0.47
	c3.33,9,5.78,18.3,7.34,27.77c0.26,1.59,0.5,3.27,0.72,5l-0.61,1c-0.18,0.28-10.84,16.78-27.5,27.09c-5.61,3.51-11.79,6-18.27,7.36
	c-6.05,1.16-12.27,0.95-18.23-0.61l0.44-0.19l-1.39-0.37l-4.16-1.13C34.53,54.82,8.49,56.2,2.07,62.04l-0.32,0.32
	C-1.83,33.77,8.8,4.77,10.07,1.5z M100.72,210.5c0,1.88-12,4.5-31.5,4.5s-31.5-2.62-31.5-4.5s11.54-4.4,30.41-4.49l0.09,5h1l0,0h1
	l0.1-5c18.87,0.09,30.42,2.65,30.42,4.49H100.72z"/>
</svg>
